<svg xmlns="http://www.w3.org/2000/svg" version="1.1" xmlns:xlink="http://www.w3.org/1999/xlink" xmlns:svgjs="http://svgjs.dev/svgjs" width="2000" height="449" viewBox="0 0 2000 449"><g transform="matrix(1,0,0,1,-1.2121212121212466,-0.14889833024940913)"><svg viewBox="0 0 396 89" data-background-color="#ffffff" preserveAspectRatio="xMidYMid meet" height="449" width="2000" xmlns="http://www.w3.org/2000/svg" xmlns:xlink="http://www.w3.org/1999/xlink"><g id="tight-bounds" transform="matrix(1,0,0,1,0.2400000000000091,0.029517334764392444)"><svg viewBox="0 0 395.52 88.94096829687882" height="88.94096829687882" width="395.52"><g><svg viewBox="0 0 395.52 88.94096829687882" height="88.94096829687882" width="395.52"><g><svg viewBox="0 0 395.52 88.94096829687882" height="88.94096829687882" width="395.52"><g id="textblocktransform"><svg viewBox="0 0 395.52 88.94096829687882" height="88.94096829687882" width="395.52" id="textblock"><g><svg viewBox="0 0 395.52 88.94096829687882" height="88.94096829687882" width="395.52"><g transform="matrix(1,0,0,1,0,0)"><svg width="395.52" viewBox="2.799999952316284 -37.099998474121094 203.44000244140625 45.75" height="88.94096829687882" data-palette-color="#a437db"><path d="M23.6-24.55L23.6-24.55 23.7-15.3Q23.7-14.35 24.75-14.35L24.75-14.35Q27.85-14.35 29.63-16.07 31.4-17.8 31.4-20.15 31.4-22.5 29.73-24.2 28.05-25.9 24.8-25.9L24.8-25.9Q23.6-25.9 23.6-24.55ZM36.7-9.6L36.7-9.6Q37.65-8.6 43.45-2.05L43.45-2.05Q43.8-1.6 43.8-1.25L43.8-1.25Q43.8 0.05 42.65 0.05L42.65 0.05Q40 0.1 37.33 0.1 34.65 0.1 32 0.05L32 0.05Q30.55 0.05 29.35-1.1L29.35-1.1 25.05-7.6Q24.8-7.9 24.45-8L24.45-8Q23.65-8.3 23.65-7.35L23.65-7.35 23.65-2.25Q23.65-0.1 20.83 0.05 18 0.2 14.65 0.2 11.3 0.2 6.55-0.05L6.55-0.05Q5.1-0.15 4.23-1.05 3.35-1.95 3.2-3.1L3.2-3.1Q2.8-7.5 2.8-16.93 2.8-26.35 3.1-30.65 3.4-34.95 7.45-35L7.45-35Q11.25-35.05 17.8-35.05 24.35-35.05 28.65-34.95L28.65-34.95Q34.85-34.85 38.8-30.35 42.75-25.85 42.75-20.2L42.75-20.2Q42.75-16.9 41.23-14.1 39.7-11.3 36.7-9.6ZM51.95-25.3L51.95-25.3 61.7-25.3Q63.4-25.3 63.97-24.55 64.55-23.8 64.72-21.23 64.9-18.65 64.9-11.83 64.9-5 64.6-2.2L64.6-2.2Q64.45-1.35 63.75-0.7 63.05-0.05 61.27 0.08 59.5 0.2 57.05 0.2 54.6 0.2 52.6 0.08 50.6-0.05 49.9-0.7 49.2-1.35 49.1-2.2L49.1-2.2Q48.75-5.45 48.75-12.18 48.75-18.9 48.95-21.35 49.15-23.8 49.7-24.55 50.25-25.3 51.95-25.3ZM57.35-37.1L57.35-37.1Q60.65-37.1 62.32-35.77 64-34.45 64-32.15L64-32.15Q64-26.75 56.8-26.75L56.8-26.75Q53.9-26.75 51.85-28 49.8-29.25 49.8-31.75L49.8-31.75Q49.8-37.1 57.35-37.1ZM89.85-7.6L89.85-7.6Q92.8-7.6 92.8-12.48 92.8-17.35 89.85-17.35L89.85-17.35Q88.7-17.35 87.77-16.57 86.85-15.8 86.85-14.4L86.85-14.4 86.85-10.55Q86.85-9.15 87.77-8.38 88.7-7.6 89.85-7.6ZM73.85-25.45L73.85-25.45 83.05-25.4Q84.25-25.4 85.15-24.68 86.05-23.95 86.1-22.6L86.1-22.6Q88.05-24.35 90.82-25.25 93.6-26.15 96.3-26.15L96.3-26.15Q101-26.15 104-22.83 107-19.5 107-12.75L107-12.75Q107-8.9 105.95-6.18 104.9-3.45 103.1-2L103.1-2Q99.65 0.65 94.87 0.65 90.1 0.65 87.4-2.45L87.4-2.45Q87.05-2.8 86.87-2.65 86.7-2.5 86.7-2.2L86.7-2.2Q86.7 1.35 86.4 5.55L86.4 5.55Q86.3 7.2 85.75 7.93 85.2 8.65 83.5 8.65L83.5 8.65 73.9 8.65Q72.25 8.65 71.67 7.85 71.1 7.05 71.05 5.4L71.05 5.4Q70.95 0.65 70.95-6.75L70.95-6.75 71.05-23.1Q71.05-24.1 71.97-24.78 72.9-25.45 73.85-25.45ZM130.44-7.6L130.44-7.6Q133.39-7.6 133.39-12.48 133.39-17.35 130.44-17.35L130.44-17.35Q129.29-17.35 128.37-16.57 127.44-15.8 127.44-14.4L127.44-14.4 127.44-10.55Q127.44-9.15 128.37-8.38 129.29-7.6 130.44-7.6ZM114.44-25.45L114.44-25.45 123.64-25.4Q124.84-25.4 125.74-24.68 126.64-23.95 126.69-22.6L126.69-22.6Q128.64-24.35 131.42-25.25 134.19-26.15 136.89-26.15L136.89-26.15Q141.59-26.15 144.59-22.83 147.59-19.5 147.59-12.75L147.59-12.75Q147.59-8.9 146.54-6.18 145.49-3.45 143.69-2L143.69-2Q140.24 0.65 135.47 0.65 130.69 0.65 127.99-2.45L127.99-2.45Q127.64-2.8 127.47-2.65 127.29-2.5 127.29-2.2L127.29-2.2Q127.29 1.35 126.99 5.55L126.99 5.55Q126.89 7.2 126.34 7.93 125.79 8.65 124.09 8.65L124.09 8.65 114.49 8.65Q112.84 8.65 112.27 7.85 111.69 7.05 111.64 5.4L111.64 5.4Q111.54 0.65 111.54-6.75L111.54-6.75 111.64-23.1Q111.64-24.1 112.57-24.78 113.49-25.45 114.44-25.45ZM155.34-36.55L155.34-36.55 164.94-36.55Q166.59-36.55 167.14-35.77 167.69-35 167.84-33.3L167.84-33.3Q168.14-27.3 168.14-16.73 168.14-6.15 167.74-2.15L167.74-2.15Q167.64-1.35 166.94-0.7 166.24-0.05 164.47 0.08 162.69 0.2 160.29 0.2 157.89 0.2 155.99 0.1L155.99 0.1Q152.74-0.15 152.59-2.15L152.59-2.15Q152.09-6.5 152.09-17.57 152.09-28.65 152.49-33.3L152.49-33.3Q152.64-35 153.16-35.77 153.69-36.55 155.34-36.55ZM181.04-23.93Q183.34-25.05 185.76-25.55 188.19-26.05 191.76-26.05 195.34-26.05 198.59-25.18 201.84-24.3 203.44-22.8L203.44-22.8Q206.24-20.05 206.24-16.35L206.24-16.35Q206.24-10.55 196.44-10.55L196.44-10.55Q192.99-10.55 189.29-11.2L189.29-11.2Q189.44-7.9 190.51-6.55 191.59-5.2 194.34-5.2 197.09-5.2 198.89-5.8 200.69-6.4 201.79-7.03 202.89-7.65 203.66-7.65 204.44-7.65 204.99-6.95L204.99-6.95Q205.84-6.05 205.84-4.48 205.84-2.9 205.21-2.33 204.59-1.75 203.24-1.2L203.24-1.2Q198.49 0.8 189.74 0.8L189.74 0.8Q182.49 0.8 177.81-2.68 173.14-6.15 173.14-12.05L173.14-12.05Q173.14-14.9 174.19-17.28 175.24-19.65 176.99-21.23 178.74-22.8 181.04-23.93ZM192.64-20.35L192.64-20.35Q189.59-20.35 189.34-15.4L189.34-15.4Q191.74-15.2 191.84-15.2L191.84-15.2Q195.14-15.2 195.14-17.4L195.14-17.4Q195.14-20.35 192.64-20.35Z" opacity="1" transform="matrix(1,0,0,1,0,0)" fill="#a437db" class="wordmark-text-0" data-fill-palette-color="primary" id="text-0"></path></svg></g></svg></g></svg></g></svg></g></svg></g><defs></defs></svg><rect width="395.52" height="88.94096829687882" fill="none" stroke="none" visibility="hidden"></rect></g></svg></g></svg>